<svg width="33" height="45" viewBox="0 0 33 45" fill="none" xmlns="http://www.w3.org/2000/svg">
<path d="M15.3504 0.0224915C13.3091 0.251183 12.1414 0.497468 10.8221 0.981239C7.32785 2.27423 4.40408 4.64031 2.41627 7.79801C0.544343 10.7798 -0.320309 14.6412 0.10756 18.0891C0.802847 23.6393 4.81412 31.2917 11.4639 39.7709C13.0328 41.7763 15.0562 44.1776 15.5198 44.591C16.1348 45.1363 16.8836 45.1363 17.4987 44.591C17.9622 44.1776 19.9856 41.7763 21.5545 39.7709C27.5358 32.1449 31.3777 25.2138 32.59 19.8307C32.9019 18.4498 33 17.5526 33 16.1101C32.9911 11.8881 31.2796 7.85079 28.1865 4.80743C25.6371 2.28302 22.6331 0.761343 19.0943 0.189613C18.2563 0.0576758 15.9565 -0.0478752 15.3504 0.0224915ZM17.5521 8.15864C20.877 8.59843 23.6314 10.9557 24.5318 14.131C24.7724 14.9666 24.8616 16.6466 24.719 17.5614C24.3 20.165 22.5707 22.4519 20.1194 23.6305C18.6753 24.3254 17.1956 24.5893 15.6891 24.4221C14.5125 24.2902 13.9153 24.1231 12.8991 23.6305C10.4477 22.4519 8.71843 20.165 8.29947 17.5614C8.15685 16.6466 8.24599 14.9666 8.48666 14.131C9.60091 10.2081 13.532 7.6133 17.5521 8.15864Z" fill="white"/>
</svg>
